<svg width="44" height="44" xmlns="http://www.w3.org/2000/svg"><g fill="none" fill-rule="evenodd"><path d="M22 44c12.15 0 22-9.85 22-22S34.15 0 22 0 0 9.85 0 22s9.85 22 22 22z" fill="#EF7D00"/><path d="M21.912 14.454a2.334 2.334 0 0 1 2.332 2.332 2.334 2.334 0 0 1-2.332 2.331 2.335 2.335 0 0 1-2.332-2.33 2.335 2.335 0 0 1 2.332-2.333zm0 7.963a5.637 5.637 0 0 0 5.632-5.63 5.638 5.638 0 0 0-5.632-5.634 5.638 5.638 0 0 0-5.633 5.633 5.637 5.637 0 0 0 5.633 5.631zM24.19 27.012a10.55 10.55 0 0 0 3.271-1.355 1.65 1.65 0 0 0-1.758-2.794 7.15 7.15 0 0 1-7.583 0 1.65 1.65 0 1 0-1.758 2.795 10.564 10.564 0 0 0 3.27 1.354l-3.149 3.149a1.65 1.65 0 0 0 2.335 2.333l3.093-3.094 3.096 3.094a1.65 1.65 0 1 0 2.333-2.333l-3.15-3.15" fill="#FFF"/></g></svg>